<?xml version="1.0" encoding="UTF-8"?>
<svg id="OBJECTS" xmlns="http://www.w3.org/2000/svg" viewBox="0 0 245.85 290.8">
  <defs>
    <style>
      .cls-1 {
        fill: #fff;
      }

      .cls-1, .cls-2, .cls-3, .cls-4, .cls-5 {
        fill-rule: evenodd;
        stroke-width: 0px;
      }

      .cls-6 {
        font-family: Quicksand-Bold, 'Quicksand Bold';
        font-size: 50.37px;
        font-weight: 700;
      }

      .cls-6, .cls-5 {
        fill: #000;
      }

      .cls-2 {
        fill: #cae093;
      }

      .cls-3 {
        fill: #3a4851;
      }

      .cls-4 {
        fill: #4e616f;
      }

      .cls-7 {
        letter-spacing: -.08em;
      }

      .cls-8 {
        letter-spacing: -.08em;
      }
    </style>
  </defs>
  <g id="_5" data-name="5">
    <g>
      <g>
        <path class="cls-5" d="M185.38,49.1c7.91,0,15.22-.04,22.53.01,6.19.04,12.39.28,18.58.29,10.11.01,17.23,4.39,18.31,17.3,1.3,15.54,1.02,31.24,1.03,46.87,0,8.01-4.71,14.13-12.34,16.25-4.8,1.34-9.86,2.18-14.84,2.37-8.47.32-16.97-.05-25.45-.13-2.25-.02-4.5,0-7.65,0,0,2.94.02,5.38,0,7.82-.29,41.39-.62,82.79-.85,124.18-.04,7.66-1.7,14.45-7.71,19.85-3.8,3.41-8,5.4-12.98,5.49-31.19.55-62.37,1.25-93.56,1.4-16.5.08-33.01-.8-49.5-1.4-9.84-.36-18.34-8.02-19.95-17.76-.52-3.16-.94-6.39-.94-9.59C0,184.32-.01,106.59.02,28.86c0-8.2,1.1-15.96,7.87-21.91C11.73,3.57,15.91,1.54,20.87,1.45,51.83.87,82.79.15,113.75,0c16.5-.08,33,.88,49.51,1.41,11.15.36,20,8.53,21,19.82.61,6.86.54,13.78.79,20.67.08,2.24.2,4.48.33,7.19ZM163.36,49.12c1.87-11.02-3.26-18.73-13.52-19.27-20.14-1.06-40.32-1.86-60.48-1.89-18.1-.03-36.21.93-54.3,1.86-7.92.41-12.91,5.61-14.22,13.43-.26,1.58-.33,3.2-.33,4.81-.01,59.78-.02,119.57.01,179.36,0,2.06.17,4.15.59,6.16,1.43,6.83,6.19,11.34,13.09,12.23,3.86.5,7.76.69,11.65.81,9.63.29,19.26.69,28.89.65,23.38-.12,46.77-.44,70.15-.75,2.05-.02,4.24-.1,6.12-.8,2.91-1.09,5.89-2.38,8.35-4.23,4.74-3.57,5-9.08,5.02-14.42.12-29.89.16-59.78.18-89.67,0-1.67-.41-3.33-.84-6.68-2.67,2.69-4.38,4.08-5.68,5.78-4.61,6.01-8.97,12.22-13.64,18.19-2.82,3.6-5.8,7.13-9.16,10.19-1.61,1.46-4.26,1.75-7.54,2.98,0-3.54-.26-5.78.06-7.93.58-3.86,1.47-7.67,2.3-11.49,1.13-5.25,2.3-10.48,3.55-16.13-8.12,0-15.45.33-22.74-.11-5.66-.34-11.36-1.26-16.88-2.59-7.44-1.8-11.25-7.69-11.42-14.67-.4-15.85-.59-31.78.63-47.57,1.03-13.32,8.05-18.07,19.14-18,10.55.07,21.1-.19,31.65-.24,9.82-.05,19.65-.01,29.37-.01ZM181.75,49.18c0-8.97.44-17.25-.11-25.46-.75-11.37-7.39-18.28-18.84-18.95-19.45-1.14-38.95-2.08-58.43-2.12-25.45-.05-50.92.83-76.37,1.39-2.97.07-6.04.22-8.86,1.04-2.98.86-6.03,2.15-8.51,3.99C3.59,14.3,2.73,22.1,2.72,30.12c-.06,46.7-.18,93.39-.19,140.09,0,30.36.11,60.73.21,91.09.02,7.51,1.2,14.44,7.16,20.08,5.29,5.01,11.68,5.07,17.99,5.33,18.1.73,36.23,1.52,54.34,1.46,25.23-.08,50.46-.9,75.68-1.44,2.06-.05,4.11-.49,6.17-.59,5.15-.26,9-2.77,12.49-6.43,4.53-4.74,5.28-10.54,5.38-16.6.24-14.25.56-28.51.58-42.77.03-27.38-.13-54.75-.24-82.12,0-1.78-.27-3.56-.44-5.64h-13.07c-.11,2.43-.3,4.67-.31,6.92-.05,19.09,0,38.19-.12,57.28-.07,11.96-.1,23.93-.63,35.88-.47,10.44-7.52,16.85-17.82,17.1-8.48.2-16.96.68-25.45.65-30.05-.13-60.09-.43-90.14-.65-6.42-.04-11.14-3.44-13.91-8.67-1.84-3.46-2.61-7.88-2.62-11.87-.15-60.96-.11-121.91-.09-182.87,0-2.06.1-4.15.45-6.18,1.39-7.95,8.18-13.98,16.27-14.25,14.22-.47,28.44-1.12,42.65-1.07,24.54.09,49.08.61,73.62,1.07,8.85.16,15.65,6.38,16.89,15.14.38,2.65.54,5.33.81,8.14h13.35ZM131.26,161.63c.65.29,1.29.59,1.94.88,2.84-3.5,5.75-6.95,8.51-10.52,5.06-6.54,10-13.17,15.03-19.74,1.58-2.06,3.35-3.54,6.3-3.5,16.98.22,33.96.49,50.94.29,6.12-.07,12.35-.87,18.3-2.3,6.45-1.56,10.08-6.59,10.08-13.09-.01-14.49.13-29.01-.67-43.47-.88-15.8-7.79-17.43-17.91-17.49-25.47-.13-50.94-.62-76.42-.67-15.14-.03-30.29.33-45.42.83-9.93.33-14.87,5.07-15.29,14.94-.63,14.94-.88,29.89-1.02,44.84-.07,7.28,3.63,12.38,10.58,14.23,5.04,1.34,10.34,1.98,15.56,2.28,7.1.4,14.23.02,21.33.3,3.89.15,4.73,1.56,4.01,5.39-.38,2.03-1.11,3.99-1.54,6.01-1.47,6.92-2.87,13.85-4.3,20.78Z"/>
        <path class="cls-2" d="M163.36,49.12c-9.72,0-19.54-.04-29.37.01-10.55.05-21.1.31-31.65.24-11.09-.07-18.1,4.68-19.14,18-1.22,15.78-1.03,31.72-.63,47.57.18,6.98,3.99,12.87,11.42,14.67,5.52,1.33,11.21,2.25,16.88,2.59,7.29.43,14.62.11,22.74.11-1.25,5.65-2.42,10.89-3.55,16.13-.82,3.82-1.72,7.63-2.3,11.49-.32,2.15-.06,4.4-.06,7.93,3.27-1.23,5.93-1.52,7.54-2.98,3.36-3.06,6.34-6.59,9.16-10.19,4.67-5.96,9.03-12.17,13.64-18.19,1.3-1.7,3.01-3.09,5.68-5.78.43,3.35.84,5.01.84,6.68-.02,29.89-.06,59.78-.18,89.67-.02,5.33-.29,10.85-5.02,14.42-2.46,1.85-5.44,3.15-8.35,4.23-1.88.7-4.07.78-6.12.8-23.39.3-46.77.63-70.15.75-9.63.05-19.26-.35-28.89-.65-3.89-.12-7.8-.31-11.65-.81-6.9-.9-11.65-5.4-13.09-12.23-.42-2.01-.59-4.1-.59-6.16-.03-59.79-.02-119.58-.01-179.36,0-1.6.07-3.23.33-4.81,1.3-7.82,6.3-13.02,14.22-13.43,18.08-.93,36.2-1.89,54.3-1.86,20.16.03,40.34.83,60.48,1.89,10.26.54,15.38,8.25,13.52,19.27Z"/>
        <path class="cls-4" d="M181.75,49.18h-13.35c-.27-2.81-.44-5.49-.81-8.14-1.24-8.76-8.04-14.98-16.89-15.14-24.54-.45-49.08-.97-73.62-1.07-14.21-.05-28.44.59-42.65,1.07-8.09.27-14.88,6.3-16.27,14.25-.35,2.03-.45,4.12-.45,6.18-.02,60.96-.07,121.92.09,182.87.01,4,.78,8.41,2.62,11.87,2.78,5.23,7.49,8.63,13.91,8.67,30.04.22,60.09.53,90.14.65,8.48.03,16.96-.44,25.45-.65,10.3-.25,17.35-6.66,17.82-17.1.53-11.94.56-23.92.63-35.88.11-19.09.07-38.19.12-57.28,0-2.25.19-4.49.31-6.92h13.07c.17,2.08.43,3.86.44,5.64.11,27.38.27,54.75.24,82.12-.01,14.25-.34,28.51-.58,42.77-.1,6.06-.85,11.86-5.38,16.6-3.49,3.66-7.34,6.17-12.49,6.43-2.06.1-4.11.55-6.17.59-25.22.54-50.45,1.36-75.68,1.44-18.11.06-36.24-.73-54.34-1.46-6.31-.26-12.71-.32-17.99-5.33-5.95-5.64-7.13-12.57-7.16-20.08-.1-30.36-.22-60.73-.21-91.09.01-46.7.13-93.4.19-140.09.01-8.02.87-15.82,7.9-21.05,2.47-1.84,5.53-3.13,8.51-3.99,2.82-.82,5.89-.97,8.86-1.04,25.46-.56,50.92-1.44,76.37-1.39,19.48.04,38.98.98,58.43,2.12,11.45.67,18.09,7.58,18.84,18.95.54,8.21.11,16.49.11,25.46ZM92.79,261.07c0,.07,0,.13,0,.2-8.47,0-16.95-.31-25.39.13-4.5.23-5.67,2.16-5.67,6.23,0,4,1.3,5.55,5.66,6.34,1.79.32,3.65.35,5.47.35,12.83.03,25.66.05,38.49-.01,2.27-.01,4.58-.23,6.8-.67,2.77-.55,4.26-2.28,4.37-5.32.17-4.75-1.39-6.87-7.06-7.15-7.54-.38-15.11-.09-22.66-.09Z"/>
        <path class="cls-1" d="M131.26,161.63c1.43-6.93,2.84-13.86,4.3-20.78.43-2.02,1.15-3.98,1.54-6.01.72-3.83-.12-5.24-4.01-5.39-7.1-.28-14.24.1-21.33-.3-5.22-.3-10.52-.94-15.56-2.28-6.95-1.85-10.64-6.95-10.58-14.23.14-14.95.39-29.91,1.02-44.84.42-9.87,5.36-14.62,15.29-14.94,15.13-.5,30.28-.86,45.42-.83,25.47.05,50.94.54,76.42.67,10.12.05,17.03,1.68,17.91,17.49.8,14.46.66,28.98.67,43.47,0,6.5-3.63,11.53-10.08,13.09-5.95,1.43-12.18,2.23-18.3,2.3-16.97.2-33.96-.07-50.94-.29-2.94-.04-4.72,1.44-6.3,3.5-5.02,6.57-9.97,13.19-15.03,19.74-2.75,3.57-5.66,7.02-8.51,10.52-.65-.29-1.29-.59-1.94-.88Z"/>
        <path class="cls-5" d="M92.79,261.07c7.55,0,15.13-.28,22.66.09,5.67.28,7.23,2.4,7.06,7.15-.1,3.04-1.6,4.76-4.37,5.32-2.23.44-4.53.66-6.8.67-12.83.06-25.66.05-38.49.01-1.83,0-3.68-.03-5.47-.35-4.37-.79-5.66-2.34-5.66-6.34,0-4.07,1.17-5.99,5.67-6.23,8.45-.44,16.93-.13,25.39-.13,0-.07,0-.13,0-.2ZM91.31,271.47v.02c7.09,0,14.18.09,21.28-.02,5.89-.09,7.44-1.02,7.12-4.08-.48-4.53-4.21-3.53-6.91-3.56-13.72-.16-27.45-.1-41.18-.09-1.36,0-2.74.13-4.1.34-2.11.32-3.53,1.63-2.94,3.76.35,1.26,1.58,2.67,2.78,3.21,1.37.61,3.14.4,4.73.41,6.41.03,12.81.02,19.22.02Z"/>
        <path class="cls-3" d="M91.31,271.47c-6.41,0-12.81.02-19.22-.02-1.59,0-3.36.2-4.73-.41-1.2-.53-2.43-1.94-2.78-3.21-.58-2.13.83-3.44,2.94-3.76,1.35-.21,2.73-.34,4.1-.34,13.73-.01,27.45-.07,41.18.09,2.7.03,6.43-.96,6.91,3.56.32,3.06-1.23,3.99-7.12,4.08-7.09.11-14.18.02-21.28.02v-.02Z"/>
      </g>
      <text class="cls-6" transform="translate(126.32 107.36)"><tspan class="cls-7" x="0" y="0">P</tspan><tspan class="cls-8" x="22.57" y="0">A</tspan><tspan x="49.42" y="0">Y</tspan></text>
    </g>
  </g>
</svg>