<svg width="25" height="24" viewBox="0 0 25 24" fill="none" xmlns="http://www.w3.org/2000/svg">
<path d="M21.5 13V15C21.5 16.6569 20.1569 18 18.5 18C16.8431 18 15.5 16.6569 15.5 15V13C15.5 11.3431 16.8431 10 18.5 10C20.1569 10 21.5 11.3431 21.5 13ZM21.5 13V11C21.5 6.02944 17.4706 2 12.5 2C7.52944 2 3.5 6.02944 3.5 11V13M3.5 13V15C3.5 16.6569 4.84315 18 6.5 18C8.15685 18 9.5 16.6569 9.5 15V13C9.5 11.3431 8.15685 10 6.5 10C4.84315 10 3.5 11.3431 3.5 13ZM21.5 14V16C21.5 19.3137 18.8137 22 15.5 22H12.5" stroke="#404040" stroke-width="1.5" stroke-linecap="round" stroke-linejoin="round"/>
</svg>
